<svg width="24" height="24" viewBox="0 0 24 24" fill="none" xmlns="http://www.w3.org/2000/svg">
<path fill-rule="evenodd" clip-rule="evenodd" d="M12.0002 23.6668C5.55684 23.6668 0.333496 18.4435 0.333496 12.0002C0.333496 5.55684 5.55684 0.333496 12.0002 0.333496C18.4435 0.333496 23.6668 5.55684 23.6668 12.0002C23.6668 18.4435 18.4435 23.6668 12.0002 23.6668ZM12.0002 2.66683C6.84551 2.66683 2.66683 6.84551 2.66683 12.0002C2.66683 17.1548 6.84551 21.3335 12.0002 21.3335C17.1548 21.3335 21.3335 17.1548 21.3335 12.0002C21.3335 6.84551 17.1548 2.66683 12.0002 2.66683ZM16.3251 7.67521C16.7807 8.13082 16.7807 8.86951 16.3251 9.32512L13.6501 12.0002L16.3251 14.6752C16.7807 15.1308 16.7807 15.8695 16.3251 16.3251C15.8695 16.7807 15.1308 16.7807 14.6752 16.3251L12.0002 13.6501L9.32512 16.3251C8.86951 16.7807 8.13082 16.7807 7.67521 16.3251C7.21959 15.8695 7.21959 15.1308 7.67521 14.6752L10.3502 12.0002L7.67521 9.32512C7.21959 8.86951 7.21959 8.13082 7.67521 7.67521C8.13082 7.21959 8.86951 7.21959 9.32512 7.67521L12.0002 10.3502L14.6752 7.67521C15.1308 7.21959 15.8695 7.21959 16.3251 7.67521Z" fill="white"/>
</svg>
