<svg width="16" height="16" viewBox="0 0 16 16" fill="none" xmlns="http://www.w3.org/2000/svg">
<path fill-rule="evenodd" clip-rule="evenodd" d="M14.974 7.19322L9.41484 1.63901C8.63379 0.857961 7.36746 0.857961 6.58641 1.63901L1.02729 7.19322C0.766944 7.45357 0.766944 7.87954 1.02729 8.13989C1.28764 8.40024 1.71361 8.40024 1.97396 8.13989L2 8.11384V11.9998C2 13.1044 2.89543 13.9998 4 13.9998H8H12C13.1046 13.9998 14 13.1044 14 11.9998V8.11258L14.0273 8.13989C14.2876 8.40024 14.7136 8.40024 14.974 8.13989C15.2343 7.87954 15.2343 7.45357 14.974 7.19322ZM9.33333 12.6665L12 12.6665C12.3682 12.6665 12.6667 12.368 12.6667 11.9998V6.77857L8.47203 2.58182C8.21168 2.32147 7.78957 2.32147 7.52922 2.58182L3.33333 6.77983V11.9998C3.33333 12.368 3.63181 12.6665 4 12.6665L6.66667 12.6665V9.6665C6.66667 8.93012 7.26362 8.33317 8 8.33317C8.73638 8.33317 9.33333 8.93012 9.33333 9.6665V12.6665Z" fill="white"/>
<mask id="mask0_1009_10212" style="mask-type:luminance" maskUnits="userSpaceOnUse" x="0" y="1" width="16" height="13">
<path fill-rule="evenodd" clip-rule="evenodd" d="M14.974 7.19322L9.41484 1.63901C8.63379 0.857961 7.36746 0.857961 6.58641 1.63901L1.02729 7.19322C0.766944 7.45357 0.766944 7.87954 1.02729 8.13989C1.28764 8.40024 1.71361 8.40024 1.97396 8.13989L2 8.11384V11.9998C2 13.1044 2.89543 13.9998 4 13.9998H8H12C13.1046 13.9998 14 13.1044 14 11.9998V8.11258L14.0273 8.13989C14.2876 8.40024 14.7136 8.40024 14.974 8.13989C15.2343 7.87954 15.2343 7.45357 14.974 7.19322ZM9.33333 12.6665L12 12.6665C12.3682 12.6665 12.6667 12.368 12.6667 11.9998V6.77857L8.47203 2.58182C8.21168 2.32147 7.78957 2.32147 7.52922 2.58182L3.33333 6.77983V11.9998C3.33333 12.368 3.63181 12.6665 4 12.6665L6.66667 12.6665V9.6665C6.66667 8.93012 7.26362 8.33317 8 8.33317C8.73638 8.33317 9.33333 8.93012 9.33333 9.6665V12.6665Z" fill="white"/>
</mask>
<g mask="url(#mask0_1009_10212)">
<path fill-rule="evenodd" clip-rule="evenodd" d="M0 16H16V0H0V16Z" fill="white"/>
</g>
</svg>
