<svg width="24" height="24" viewBox="0 0 24 24" fill="none" xmlns="http://www.w3.org/2000/svg">
<path fill-rule="evenodd" clip-rule="evenodd" d="M0.333496 12.0002C0.333496 18.4435 5.55684 23.6668 12.0002 23.6668C18.4435 23.6668 23.6668 18.4435 23.6668 12.0002C23.6668 5.55684 18.4435 0.333496 12.0002 0.333496C5.55684 0.333496 0.333496 5.55684 0.333496 12.0002ZM2.66683 12.0002C2.66683 6.84551 6.84551 2.66683 12.0002 2.66683C17.1548 2.66683 21.3335 6.84551 21.3335 12.0002C21.3335 17.1548 17.1548 21.3335 12.0002 21.3335C6.84551 21.3335 2.66683 17.1548 2.66683 12.0002Z" fill="white"/>
<path fill-rule="evenodd" clip-rule="evenodd" d="M9.32512 11.1752C8.86951 10.7196 8.13082 10.7196 7.6752 11.1752C7.21959 11.6308 7.21959 12.3695 7.6752 12.8251L10.0085 15.1585C10.4641 15.6141 11.2028 15.6141 11.6585 15.1585L16.3251 10.4918C16.7807 10.0362 16.7807 9.29748 16.3251 8.84187C15.8695 8.38626 15.1308 8.38626 14.6752 8.84187L10.8335 12.6836L9.32512 11.1752Z" fill="white"/>
</svg>
