<svg width="24" height="24" viewBox="0 0 24 24" fill="none" xmlns="http://www.w3.org/2000/svg">
<path fill-rule="evenodd" clip-rule="evenodd" d="M0.333496 12.0002C0.333496 18.4435 5.55684 23.6668 12.0002 23.6668C18.4435 23.6668 23.6668 18.4435 23.6668 12.0002C23.6668 5.55684 18.4435 0.333496 12.0002 0.333496C5.55684 0.333496 0.333496 5.55684 0.333496 12.0002ZM2.66683 12.0002C2.66683 6.84551 6.84551 2.66683 12.0002 2.66683C17.1548 2.66683 21.3335 6.84551 21.3335 12.0002C21.3335 17.1548 17.1548 21.3335 12.0002 21.3335C6.84551 21.3335 2.66683 17.1548 2.66683 12.0002ZM12 4.7085C11.2042 4.7085 10.5682 5.37049 10.6 6.16566L10.8626 12.7302C10.887 13.3407 11.389 13.8231 12 13.8231C12.611 13.8231 13.1131 13.3407 13.1375 12.7302L13.4001 6.16566C13.4319 5.37049 12.7958 4.7085 12 4.7085ZM10.3231 17.2866C10.3231 16.3805 11.0576 15.646 11.9637 15.646C12.8698 15.646 13.6043 16.3805 13.6043 17.2866C13.6043 18.1927 12.8698 18.9272 11.9637 18.9272C11.0576 18.9272 10.3231 18.1927 10.3231 17.2866Z" fill="white"/>
</svg>
